<svg xmlns="http://www.w3.org/2000/svg" viewBox="0 0 332 320"><g transform="translate(36.256 0)"><path d="M56 214 C40 176 42 134 66 110 L56 58 C55 51 61 48 66 52 L102 86 C114 83 126 83 138 86 L174 52 C179 48 185 51 184 58 L174 110 C198 134 200 176 184 214 Z" fill="#FFFFFF" stroke="#FFFFFF" stroke-width="16" stroke-linejoin="round"/><g stroke="#FFFFFF" stroke-width="14" stroke-linejoin="round" stroke-linecap="round"><g transform="rotate(-38 176 186)"><rect fill="#fff" x="150" y="181" width="78" height="20" rx="3" data-f="#FFC83D"/><rect fill="#fff" x="150" y="181" width="78" height="6" rx="3" data-f="#FFDA70"/><path fill="#fff" d="M228 181 L252 191 L228 201 Z" data-f="#FBD9A4"/><path fill="#fff" d="M244.5 187.8 L252 191 L244.5 194.2 Z" data-f="#14123A"/><rect fill="#fff" x="138" y="181" width="14" height="20" data-f="#B8BDD9"/><rect fill="#fff" x="124" y="181" width="16" height="20" rx="6" data-f="#FF6B5E"/></g></g><ellipse cx="170" cy="200" rx="21" ry="17" fill="#FFFFFF" stroke="#FFFFFF" stroke-width="12"/><path d="M56 214 C40 176 42 134 66 110 L56 58 C55 51 61 48 66 52 L102 86 C114 83 126 83 138 86 L174 52 C179 48 185 51 184 58 L174 110 C198 134 200 176 184 214 Z" fill="#2F3CFF"/><path d="M66 68 L92 92 L72 104 Z M174 68 L148 92 L168 104 Z" fill="#FFFFFF" opacity=".22"/><circle cx="98" cy="146" r="17" fill="#FFFFFF"/><circle cx="98" cy="143" r="8.5" fill="#14123A"/><circle cx="101" cy="139.5" r="2.805" fill="#FFFFFF"/><circle cx="142" cy="146" r="17" fill="#FFFFFF"/><circle cx="142" cy="143" r="8.5" fill="#14123A"/><circle cx="145" cy="139.5" r="2.805" fill="#FFFFFF"/><path d="M114 166 h12 l-6 7 z" fill="#FF6B5E" stroke="#FF6B5E" stroke-width="3" stroke-linejoin="round"/><path d="M108 178 Q114 184 120 177 Q126 184 132 178" stroke="#FFFFFF" stroke-width="4" fill="none" stroke-linecap="round"/><path d="M62 166 h18 M64 177 l16 -4 M178 166 h-18 M176 177 l-16 -4" stroke="#FFFFFF" stroke-width="3.6" stroke-linecap="round"/><g transform="rotate(-8 120 80)"><path d="M58 100 C56 84 62 72 74 70 C82 70 86 74 90 76 C96 58 106 50 120 50 C134 50 144 58 150 76 C154 74 158 70 166 70 C178 72 184 84 182 100 C162 91 141 88 120 88 C99 88 78 91 58 100 Z" fill="#14123A"/><path d="M66 95 C84 89 102 86 120 86 C138 86 156 89 174 95" stroke="#FFC83D" stroke-width="4" fill="none" stroke-linecap="round"/><circle cx="120" cy="68" r="8.5" fill="#FFFFFF"/><rect x="115" y="71.5" width="10" height="6" rx="2" fill="#FFFFFF"/><circle cx="116.8" cy="67" r="2.3" fill="#14123A"/><circle cx="123.2" cy="67" r="2.3" fill="#14123A"/></g><g transform="rotate(-38 176 186)"><rect x="150" y="181" width="78" height="20" rx="3" fill="#FFC83D"/><rect x="150" y="181" width="78" height="6" rx="3" fill="#FFDA70"/><path d="M228 181 L252 191 L228 201 Z" fill="#FBD9A4"/><path d="M244.5 187.8 L252 191 L244.5 194.2 Z" fill="#14123A"/><rect x="138" y="181" width="14" height="20" fill="#B8BDD9"/><rect x="124" y="181" width="16" height="20" rx="6" fill="#FF6B5E"/></g><ellipse cx="170" cy="200" rx="21" ry="17" fill="#2F3CFF"/><path d="M163 190 v8 M171 189 v9 M179 191 v7" stroke="#FFFFFF" stroke-width="3.2" stroke-linecap="round"/></g><g transform="translate(10 300)"><path d="M18.432000000000002 0.896Q16.64 0.896 15.328 0.192Q14.016 -0.512 13.312000000000001 -1.92L1.984 -23.488Q0.5760000000000001 -26.240000000000002 1.088 -28.096000000000004Q1.6 -29.952 4.5440000000000005 -31.36Q7.5520000000000005 -32.832 9.280000000000001 -32.384Q11.008000000000001 -31.936 12.416 -28.736L18.432000000000002 -15.040000000000001L24.448 -28.736Q25.92 -32.064 27.648000000000003 -32.448Q29.376 -32.832 32.32 -31.36Q35.328 -29.888 35.776 -28.0Q36.224000000000004 -26.112000000000002 34.88 -23.488L23.552 -1.92Q22.848 -0.512 21.567999999999998 0.192Q20.288 0.896 18.432000000000002 0.896Z M54.08 1.28Q49.279999999999994 1.28 45.952 -0.28800000000000003Q42.623999999999995 -1.856 40.57599999999999 -4.384Q38.528 -6.912 37.568 -9.856Q36.608 -12.8 36.608 -15.552Q36.608 -20.608 38.848 -24.448Q41.087999999999994 -28.288 45.056 -30.464Q49.023999999999994 -32.64 54.14399999999999 -32.64Q58.111999999999995 -32.64 60.928 -31.36Q63.744 -30.080000000000002 65.50399999999999 -28.096000000000004Q67.264 -26.112000000000002 68.096 -23.872Q68.928 -21.632 68.928 -19.712Q68.928 -16.064 67.136 -14.144Q65.344 -12.224 62.52799999999999 -12.224H48.896Q49.151999999999994 -11.200000000000001 49.952 -10.464Q50.751999999999995 -9.728 51.967999999999996 -9.312000000000001Q53.184 -8.896 54.592 -8.896Q56.0 -8.896 57.087999999999994 -9.056000000000001Q58.175999999999995 -9.216000000000001 58.976 -9.472000000000001Q59.775999999999996 -9.728 60.44799999999999 -9.984Q61.12 -10.24 61.664 -10.4Q62.208 -10.56 62.72 -10.56Q63.872 -10.56 64.832 -9.792000000000002Q65.792 -9.024000000000001 66.56 -7.488Q67.008 -6.656000000000001 67.19999999999999 -5.92Q67.392 -5.184 67.392 -4.5440000000000005Q67.392 -2.624 65.824 -1.344Q64.256 -0.064 61.312 0.608Q58.367999999999995 1.28 54.08 1.28ZM48.896 -18.240000000000002H56.06399999999999Q56.959999999999994 -18.240000000000002 57.376 -18.624000000000002Q57.792 -19.008 57.792 -19.776Q57.792 -20.608 57.312 -21.184Q56.831999999999994 -21.76 55.99999999999999 -22.048000000000002Q55.16799999999999 -22.336000000000002 54.016 -22.336000000000002Q52.48 -22.336000000000002 51.327999999999996 -21.728Q50.175999999999995 -21.12 49.568 -20.192Q48.959999999999994 -19.264 48.896 -18.240000000000002Z M82.62400000000001 1.1520000000000001Q80.83200000000001 1.1520000000000001 78.624 0.7360000000000001Q76.416 0.32 74.336 -0.48Q72.256 -1.28 70.912 -2.368Q69.568 -3.456 69.568 -4.864Q69.568 -5.5040000000000004 69.856 -6.304Q70.144 -7.104 70.656 -8.064Q71.168 -9.024000000000001 71.936 -10.112Q72.384 -10.752 72.992 -11.072Q73.60000000000001 -11.392 74.432 -11.392Q75.584 -11.392 76.672 -10.911999999999999Q77.76 -10.432 78.84800000000001 -9.824000000000002Q79.936 -9.216000000000001 81.12 -8.736Q82.304 -8.256 83.64800000000001 -8.256Q84.864 -8.256 85.47200000000001 -8.512Q86.08000000000001 -8.768 86.08000000000001 -9.28Q86.08000000000001 -9.792 85.66400000000002 -10.112Q85.248 -10.432 84.512 -10.656Q83.77600000000001 -10.88 82.816 -11.072Q81.85600000000001 -11.264 80.768 -11.52Q79.68 -11.776 78.528 -12.16Q77.05600000000001 -12.608 75.64800000000001 -13.344000000000001Q74.24000000000001 -14.08 73.12 -15.296Q72.0 -16.512 71.328 -18.240000000000002Q70.656 -19.968 70.656 -22.464000000000002Q70.656 -25.792 72.19200000000001 -28.032000000000004Q73.72800000000001 -30.272000000000002 76.736 -31.424Q79.744 -32.576 84.16 -32.576Q85.248 -32.576 86.33600000000001 -32.448Q87.424 -32.32 88.54400000000001 -32.064Q89.664 -31.808 90.78399999999999 -31.392Q91.904 -30.976 93.05600000000001 -30.464000000000002Q95.424 -29.44 95.488 -27.616Q95.552 -25.792 94.144 -23.808Q93.376 -22.592 92.57600000000001 -21.984Q91.77600000000001 -21.376 90.944 -21.376Q89.92 -21.376 88.70400000000001 -21.951999999999998Q87.488 -22.528 86.144 -23.104Q84.80000000000001 -23.68 83.456 -23.68Q82.688 -23.68 82.144 -23.52Q81.60000000000001 -23.36 81.34400000000001 -23.072Q81.08800000000001 -22.784 81.08800000000001 -22.400000000000002Q81.08800000000001 -21.696 81.56800000000001 -21.28Q82.048 -20.864 82.84800000000001 -20.608Q83.64800000000001 -20.352 84.70400000000001 -20.16Q85.76 -19.968 86.976 -19.776Q88.64 -19.52 90.4 -18.976Q92.16 -18.432000000000002 93.632 -17.408Q95.10400000000001 -16.384 96.0 -14.592Q96.896 -12.8 96.896 -9.92Q96.896 -4.48 93.28 -1.6640000000000001Q89.664 1.1520000000000001 82.62400000000001 1.1520000000000001Z M115.90400000000001 0.5760000000000001Q112.512 0.5760000000000001 110.016 -0.19199999999999995Q107.52000000000001 -0.96 105.888 -2.56Q104.256 -4.16 103.456 -6.5920000000000005Q102.656 -9.024000000000001 102.656 -12.288V-37.12Q102.656 -38.592 102.912 -39.84Q103.168 -41.088 104.38400000000001 -41.888000000000005Q105.60000000000001 -42.688 108.48 -42.688Q111.296 -42.688 112.512 -41.824Q113.72800000000001 -40.96 113.98400000000001 -39.616Q114.24000000000001 -38.272 114.24000000000001 -36.864000000000004V-12.864Q114.24000000000001 -12.16 114.33600000000001 -11.68Q114.43200000000002 -11.200000000000001 114.62400000000001 -10.944Q114.816 -10.688 115.136 -10.56Q115.456 -10.432 115.968 -10.432Q117.632 -10.432 118.944 -10.176Q120.256 -9.92 120.992 -8.832Q121.72800000000001 -7.744 121.72800000000001 -5.184Q121.72800000000001 -2.3040000000000003 120.83200000000001 -1.088Q119.936 0.128 118.59200000000001 0.35200000000000004Q117.248 0.5760000000000001 115.90400000000001 0.5760000000000001ZM101.31200000000001 -31.552H108.80000000000001L117.632 -31.872Q119.04 -31.872 120.352 -31.616Q121.66400000000002 -31.36 122.52800000000002 -30.144Q123.39200000000001 -28.928 123.39200000000001 -25.984Q123.39200000000001 -23.296 122.52800000000002 -22.08Q121.66400000000002 -20.864 120.352 -20.544Q119.04 -20.224 117.56800000000001 -20.224L109.44000000000001 -20.416H101.05600000000001Q98.88000000000001 -20.544 98.048 -21.823999999999998Q97.21600000000001 -23.104 97.21600000000001 -26.048000000000002Q97.21600000000001 -28.8 98.24000000000001 -30.176000000000002Q99.26400000000001 -31.552 101.31200000000001 -31.552Z M130.752 0.5760000000000001Q127.87200000000001 0.5760000000000001 126.656 -0.28800000000000003Q125.44000000000001 -1.1520000000000001 125.21600000000001 -2.496Q124.992 -3.84 124.992 -5.248V-26.112000000000002Q124.992 -27.52 125.248 -28.832Q125.504 -30.144000000000002 126.72 -31.008000000000003Q127.936 -31.872 130.816 -31.872Q133.696 -31.872 134.88 -31.008000000000003Q136.06400000000002 -30.144000000000002 136.32000000000002 -28.8Q136.57600000000002 -27.456 136.57600000000002 -25.984V-5.184Q136.57600000000002 -3.7760000000000002 136.32000000000002 -2.4320000000000004Q136.06400000000002 -1.088 134.88 -0.256Q133.696 0.5760000000000001 130.752 0.5760000000000001ZM130.752 -35.008Q127.87200000000001 -35.008 126.656 -35.872Q125.44000000000001 -36.736000000000004 125.21600000000001 -38.08Q124.992 -39.424 124.992 -40.832Q124.992 -42.304 125.248 -43.616Q125.504 -44.928000000000004 126.72 -45.760000000000005Q127.936 -46.592 130.816 -46.592Q133.696 -46.592 134.88 -45.728Q136.06400000000002 -44.864000000000004 136.32000000000002 -43.52Q136.57600000000002 -42.176 136.57600000000002 -40.768Q136.57600000000002 -39.36 136.32000000000002 -38.016000000000005Q136.06400000000002 -36.672000000000004 134.88 -35.84Q133.696 -35.008 130.752 -35.008Z M157.248 0.448Q154.112 0.448 151.808 -0.9280000000000002Q149.504 -2.3040000000000003 148.03199999999998 -4.640000000000001Q146.56 -6.976 145.856 -9.888Q145.15200000000002 -12.8 145.216 -15.936Q145.28 -19.008 146.01600000000002 -21.887999999999998Q146.752 -24.768 148.224 -27.008000000000003Q149.696 -29.248 151.93599999999998 -30.560000000000002Q154.176 -31.872 157.248 -31.872Q160.064 -31.872 162.72 -30.528Q165.376 -29.184 167.488 -26.912Q169.6 -24.64 170.816 -21.759999999999998Q172.032 -18.88 172.032 -15.808Q172.032 -12.608 170.816 -9.664Q169.6 -6.72 167.51999999999998 -4.448Q165.44 -2.176 162.784 -0.8640000000000001Q160.128 0.448 157.248 0.448ZM155.712 -11.072000000000001Q156.992 -11.072000000000001 158.048 -11.712Q159.104 -12.352 159.74400000000003 -13.408000000000001Q160.38400000000001 -14.464 160.38400000000001 -15.68Q160.38400000000001 -16.96 159.776 -18.016Q159.168 -19.072 158.11200000000002 -19.68Q157.056 -20.288 155.776 -20.288Q154.496 -20.288 153.44 -19.648Q152.38400000000001 -19.008 151.776 -17.984Q151.168 -16.96 151.168 -15.68Q151.168 -14.464 151.808 -13.408000000000001Q152.448 -12.352 153.472 -11.712Q154.496 -11.072000000000001 155.712 -11.072000000000001ZM145.216 0.512Q142.336 0.512 141.12 -0.352Q139.904 -1.216 139.68 -2.56Q139.456 -3.904 139.456 -5.312V-40.832Q139.456 -42.304 139.712 -43.616Q139.968 -44.928000000000004 141.184 -45.760000000000005Q142.4 -46.592 145.28 -46.592Q148.16 -46.592 149.312 -45.728Q150.464 -44.864000000000004 150.656 -43.52Q150.848 -42.176 150.784 -40.768V-2.688Q150.336 -1.024 149.08800000000002 -0.256Q147.84 0.512 145.216 0.512Z M188.16 0.448Q185.088 0.448 182.432 -0.768Q179.77599999999998 -1.984 177.79199999999997 -4.192Q175.808 -6.4 174.71999999999997 -9.344000000000001Q173.63199999999998 -12.288 173.63199999999998 -15.744V-26.176000000000002Q173.63199999999998 -27.648 173.88799999999998 -28.96Q174.14399999999998 -30.272000000000002 175.35999999999999 -31.136000000000003Q176.576 -32.0 179.456 -32.0Q182.39999999999998 -32.0 183.584 -31.136000000000003Q184.768 -30.272000000000002 185.024 -28.928Q185.28 -27.584 185.28 -26.112000000000002V-15.744Q185.28 -14.272 185.824 -13.248000000000001Q186.368 -12.224 187.42399999999998 -11.68Q188.48 -11.136000000000001 189.88799999999998 -11.136000000000001Q191.296 -11.136000000000001 192.32 -11.712Q193.344 -12.288 193.92 -13.312000000000001Q194.49599999999998 -14.336 194.49599999999998 -15.744V-26.240000000000002Q194.49599999999998 -27.712 194.75199999999998 -29.024Q195.00799999999998 -30.336000000000002 196.224 -31.168Q197.44 -32.0 200.32 -32.0Q203.26399999999998 -32.0 204.44799999999998 -31.136000000000003Q205.632 -30.272000000000002 205.888 -28.928Q206.144 -27.584 206.144 -26.176000000000002V-5.12Q206.144 -3.712 205.888 -2.4320000000000004Q205.632 -1.1520000000000001 204.416 -0.32000000000000006Q203.2 0.512 200.32 0.512Q198.208 0.512 197.024 0.032Q195.83999999999997 -0.448 195.32799999999997 -1.184Q194.81599999999997 -1.92 194.71999999999997 -2.6559999999999997Q194.624 -3.392 194.624 -3.904L195.712 -3.584Q195.712 -3.584 195.2 -2.976Q194.688 -2.368 193.69599999999997 -1.568Q192.70399999999998 -0.768 191.32799999999997 -0.16Q189.952 0.448 188.16 0.448Z M222.272 0.5760000000000001Q219.328 0.5760000000000001 217.12 0.32000000000000006Q214.91199999999998 0.064 213.37599999999998 -0.704Q211.84 -1.472 210.88 -2.912Q209.92 -4.352 209.47199999999998 -6.688000000000001Q209.024 -9.024000000000001 209.024 -12.544V-40.896Q209.024 -42.368 209.28 -43.68000000000001Q209.536 -44.992000000000004 210.752 -45.856Q211.968 -46.72 214.84799999999998 -46.72Q217.72799999999998 -46.72 218.91199999999998 -45.856Q220.096 -44.992000000000004 220.352 -43.648Q220.608 -42.304 220.608 -40.832V-13.248000000000001Q220.608 -12.288 220.64 -11.744Q220.672 -11.200000000000001 220.832 -10.944Q220.992 -10.688 221.344 -10.656Q221.696 -10.624 222.33599999999998 -10.624Q223.168 -10.624 224.096 -10.4Q225.024 -10.176 225.696 -9.056000000000001Q226.368 -7.936 226.368 -5.184Q226.368 -2.3040000000000003 225.696 -1.088Q225.024 0.128 224.064 0.35200000000000004Q223.10399999999998 0.5760000000000001 222.272 0.5760000000000001Z M253.31199999999998 0.448Q250.432 0.448 249.05599999999998 -0.512Q247.67999999999998 -1.472 247.744 -2.688H248.64Q248.32 -2.24 247.392 -1.504Q246.464 -0.768 244.928 -0.16Q243.392 0.448 241.152 0.448Q238.272 0.448 235.61599999999999 -0.8640000000000001Q232.95999999999998 -2.176 230.88 -4.48Q228.79999999999998 -6.784 227.584 -9.696Q226.368 -12.608 226.368 -15.808Q226.368 -18.944 227.584 -21.823999999999998Q228.79999999999998 -24.704 230.91199999999998 -26.976Q233.024 -29.248 235.648 -30.560000000000002Q238.272 -31.872 241.152 -31.872Q243.32799999999997 -31.872 244.832 -31.232Q246.33599999999998 -30.592000000000002 247.26399999999998 -29.824Q248.19199999999998 -29.056 248.512 -28.544H247.808Q247.744 -30.144000000000002 249.12 -31.04Q250.49599999999998 -31.936 253.37599999999998 -31.936Q256.256 -31.936 257.43999999999994 -31.072000000000003Q258.62399999999997 -30.208000000000002 258.88 -28.864Q259.13599999999997 -27.52 259.13599999999997 -26.112000000000002V-5.312Q259.13599999999997 -3.904 258.88 -2.56Q258.62399999999997 -1.216 257.43999999999994 -0.384Q256.256 0.448 253.31199999999998 0.448ZM242.75199999999998 -11.136000000000001Q243.968 -11.136000000000001 244.95999999999998 -11.776Q245.952 -12.416 246.56 -13.472000000000001Q247.16799999999998 -14.528 247.16799999999998 -15.744Q247.16799999999998 -17.024 246.56 -18.048000000000002Q245.952 -19.072 244.928 -19.712Q243.904 -20.352 242.624 -20.352Q241.344 -20.352 240.288 -19.712Q239.232 -19.072 238.59199999999998 -18.016Q237.952 -16.96 237.952 -15.68Q237.952 -14.464 238.624 -13.440000000000001Q239.296 -12.416 240.384 -11.776Q241.47199999999998 -11.136000000000001 242.75199999999998 -11.136000000000001Z M267.456 0.5760000000000001Q264.576 0.5760000000000001 263.36 -0.28800000000000003Q262.144 -1.1520000000000001 261.92 -2.528Q261.696 -3.904 261.696 -5.312V-26.176000000000002Q261.696 -27.648 261.952 -28.96Q262.208 -30.272000000000002 263.424 -31.104Q264.64 -31.936 267.52 -31.936Q270.336 -31.936 271.52 -31.168Q272.704 -30.400000000000002 272.96000000000004 -29.472Q273.216 -28.544 273.216 -28.032L272.192 -28.416Q272.192 -28.416 272.704 -28.992Q273.216 -29.568 274.20799999999997 -30.336Q275.2 -31.104 276.576 -31.68Q277.952 -32.256 279.68 -32.256Q280.25600000000003 -32.256 281.12 -32.16Q281.98400000000004 -32.064 282.976 -31.808Q283.968 -31.552 284.832 -31.04Q285.696 -30.528000000000002 286.24 -29.696Q286.784 -28.864 286.784 -27.648Q286.784 -24.448 285.408 -22.208Q284.03200000000004 -19.968 281.79200000000003 -19.968Q280.576 -19.968 280.064 -20.128Q279.552 -20.288 279.328 -20.448Q279.104 -20.608 278.81600000000003 -20.768Q278.528 -20.928 277.76 -20.928Q276.8 -20.928 276.0 -20.704Q275.2 -20.48 274.592 -20.032Q273.98400000000004 -19.584 273.664 -18.976Q273.344 -18.368000000000002 273.344 -17.664V-5.184Q273.344 -3.7760000000000002 273.08799999999997 -2.4320000000000004Q272.832 -1.088 271.616 -0.256Q270.40000000000003 0.5760000000000001 267.456 0.5760000000000001Z M293.824 0.5760000000000001Q290.944 0.5760000000000001 289.728 -0.28800000000000003Q288.512 -1.1520000000000001 288.288 -2.528Q288.064 -3.904 288.064 -5.312V-26.176000000000002Q288.064 -27.648 288.32000000000005 -28.96Q288.576 -30.272000000000002 289.79200000000003 -31.104Q291.008 -31.936 293.88800000000003 -31.936Q296.704 -31.936 297.88800000000003 -31.168Q299.072 -30.400000000000002 299.328 -29.472Q299.584 -28.544 299.584 -28.032L298.56 -28.416Q298.56 -28.416 299.072 -28.992Q299.584 -29.568 300.576 -30.336Q301.568 -31.104 302.94399999999996 -31.68Q304.32 -32.256 306.048 -32.256Q306.624 -32.256 307.48800000000006 -32.16Q308.35200000000003 -32.064 309.34400000000005 -31.808Q310.336 -31.552 311.20000000000005 -31.04Q312.064 -30.528000000000002 312.608 -29.696Q313.152 -28.864 313.152 -27.648Q313.152 -24.448 311.77599999999995 -22.208Q310.4 -19.968 308.16 -19.968Q306.944 -19.968 306.432 -20.128Q305.92 -20.288 305.696 -20.448Q305.472 -20.608 305.18399999999997 -20.768Q304.896 -20.928 304.128 -20.928Q303.168 -20.928 302.368 -20.704Q301.568 -20.48 300.96000000000004 -20.032Q300.35200000000003 -19.584 300.03200000000004 -18.976Q299.712 -18.368000000000002 299.712 -17.664V-5.184Q299.712 -3.7760000000000002 299.456 -2.4320000000000004Q299.2 -1.088 297.98400000000004 -0.256Q296.76800000000003 0.5760000000000001 293.824 0.5760000000000001Z" fill="#2F3CFF"/></g></svg>